<svg width="32" height="32" viewBox="0 0 32 32" fill="none" xmlns="http://www.w3.org/2000/svg">
<path d="M0.666016 5.33333C0.666016 4.59695 1.26297 4 1.99935 4H29.9993C30.7357 4 31.3327 4.59695 31.3327 5.33333V26.6667C31.3327 27.403 30.7357 28 29.9993 28H1.99935C1.26297 28 0.666016 27.403 0.666016 26.6667V5.33333Z" fill="url(#paint0_linear_4020_1682)"/>
<path d="M0.666016 5.33333C0.666016 4.59695 1.26297 4 1.99935 4H29.9993C30.7357 4 31.3327 4.59695 31.3327 5.33333V26.6667C31.3327 27.403 30.7357 28 29.9993 28H1.99935C1.26297 28 0.666016 27.403 0.666016 26.6667V5.33333Z" fill="url(#paint1_linear_4020_1682)"/>
<path d="M4 16H7.33333" stroke="white" stroke-width="1.33333" stroke-linecap="round"/>
<path d="M4 20H7.33333" stroke="white" stroke-width="1.33333" stroke-linecap="round"/>
<path d="M4 12H7.33333" stroke="white" stroke-width="1.33333" stroke-linecap="round"/>
<path d="M10.666 28L10.666 8.66667" stroke="white" stroke-width="1.33333" stroke-linecap="round"/>
<g filter="url(#filter0_d_4020_1682)">
<path d="M18.666 16.4002V13.6002C18.666 13.4529 18.5466 13.3335 18.3993 13.3335H14.9327C14.7854 13.3335 14.666 13.4529 14.666 13.6002V16.4002C14.666 16.5474 14.7854 16.6668 14.9327 16.6668H18.3993C18.5466 16.6668 18.666 16.5474 18.666 16.4002Z" stroke="white" stroke-width="1.33333" stroke-linecap="round" shape-rendering="crispEdges"/>
</g>
<g filter="url(#filter1_d_4020_1682)">
<path d="M21.334 13.3335H28.0007" stroke="white" stroke-width="1.33333" stroke-linecap="round"/>
</g>
<g filter="url(#filter2_d_4020_1682)">
<path d="M21.334 16H26.6673" stroke="white" stroke-width="1.33333" stroke-linecap="round"/>
</g>
<path d="M30.7979 8.27901C30.7979 8.59041 31.0486 8.84116 31.36 8.84116C31.6714 8.84116 31.9222 8.59041 31.9222 8.27901V4.62482C31.9222 3.63213 31.114 2.82396 30.1213 2.82396H1.87872C0.886035 2.82396 0.0778646 3.63213 0.0778646 4.62482V8.27901C0.0778646 8.59041 0.328616 8.84116 0.640015 8.84116C0.951415 8.84116 1.20217 8.59041 1.20217 8.27901V4.62482C1.20217 4.2508 1.50471 3.94826 1.87872 3.94826H30.1213C30.4953 3.94826 30.7979 4.2508 30.7979 4.62482V8.27901Z" fill="white" stroke="white" stroke-width="0.133333"/>
<path d="M1.87872 29.1763H30.1213C31.114 29.1763 31.9222 28.3682 31.9222 27.3755V8.27869C31.9222 7.96729 31.6714 7.71654 31.36 7.71654H0.640015C0.328616 7.71654 0.0778646 7.96729 0.0778646 8.27869V27.3755C0.0778646 28.3682 0.886035 29.1763 1.87872 29.1763ZM1.20217 27.3755V8.84084H30.7979V27.3755C30.7979 27.7495 30.4953 28.052 30.1213 28.052H1.87872C1.50471 28.052 1.20217 27.7495 1.20217 27.3755Z" fill="white" stroke="white" stroke-width="0.133333"/>
<path d="M3.39055 6.77817C2.9921 6.77817 2.66797 6.45404 2.66797 6.05559C2.66797 5.65714 2.9921 5.33301 3.39055 5.33301C3.789 5.33301 4.11313 5.65714 4.11313 6.05559C4.11313 6.45404 3.789 6.77817 3.39055 6.77817Z" fill="white"/>
<path d="M6.23821 6.77817C5.83975 6.77817 5.51562 6.45404 5.51562 6.05559C5.51562 5.65714 5.83975 5.33301 6.23821 5.33301C6.63666 5.33301 6.96079 5.65714 6.96079 6.05559C6.96079 6.45404 6.63666 6.77817 6.23821 6.77817Z" fill="white"/>
<path d="M9.08782 6.77817C8.68936 6.77817 8.36523 6.45404 8.36523 6.05559C8.36523 5.65714 8.68936 5.33301 9.08782 5.33301C9.48627 5.33301 9.8104 5.65714 9.8104 6.05559C9.8104 6.45404 9.48627 6.77817 9.08782 6.77817Z" fill="white"/>
<path d="M22 23.3335H26" stroke="white" stroke-width="1.33333" stroke-linecap="round"/>
<path d="M24 21.3335L24 25.3335" stroke="white" stroke-width="1.33333" stroke-linecap="round"/>
<defs>
<filter id="filter0_d_4020_1682" x="14" y="12.667" width="5.33203" height="4.6665" filterUnits="userSpaceOnUse" color-interpolation-filters="sRGB">
<feFlood flood-opacity="0" result="BackgroundImageFix"/>
<feColorMatrix in="SourceAlpha" type="matrix" values="0 0 0 0 0 0 0 0 0 0 0 0 0 0 0 0 0 0 127 0" result="hardAlpha"/>
<feOffset/>
<feComposite in2="hardAlpha" operator="out"/>
<feColorMatrix type="matrix" values="0 0 0 0 0 0 0 0 0 0 0 0 0 0 0 0 0 0 0.25 0"/>
<feBlend mode="normal" in2="BackgroundImageFix" result="effect1_dropShadow_4020_1682"/>
<feBlend mode="normal" in="SourceGraphic" in2="effect1_dropShadow_4020_1682" result="shape"/>
</filter>
<filter id="filter1_d_4020_1682" x="20.668" y="12.667" width="8" height="1.33301" filterUnits="userSpaceOnUse" color-interpolation-filters="sRGB">
<feFlood flood-opacity="0" result="BackgroundImageFix"/>
<feColorMatrix in="SourceAlpha" type="matrix" values="0 0 0 0 0 0 0 0 0 0 0 0 0 0 0 0 0 0 127 0" result="hardAlpha"/>
<feOffset/>
<feComposite in2="hardAlpha" operator="out"/>
<feColorMatrix type="matrix" values="0 0 0 0 0 0 0 0 0 0 0 0 0 0 0 0 0 0 0.25 0"/>
<feBlend mode="normal" in2="BackgroundImageFix" result="effect1_dropShadow_4020_1682"/>
<feBlend mode="normal" in="SourceGraphic" in2="effect1_dropShadow_4020_1682" result="shape"/>
</filter>
<filter id="filter2_d_4020_1682" x="20.668" y="15.3335" width="6.66602" height="1.33301" filterUnits="userSpaceOnUse" color-interpolation-filters="sRGB">
<feFlood flood-opacity="0" result="BackgroundImageFix"/>
<feColorMatrix in="SourceAlpha" type="matrix" values="0 0 0 0 0 0 0 0 0 0 0 0 0 0 0 0 0 0 127 0" result="hardAlpha"/>
<feOffset/>
<feComposite in2="hardAlpha" operator="out"/>
<feColorMatrix type="matrix" values="0 0 0 0 0 0 0 0 0 0 0 0 0 0 0 0 0 0 0.25 0"/>
<feBlend mode="normal" in2="BackgroundImageFix" result="effect1_dropShadow_4020_1682"/>
<feBlend mode="normal" in="SourceGraphic" in2="effect1_dropShadow_4020_1682" result="shape"/>
</filter>
<linearGradient id="paint0_linear_4020_1682" x1="15.9993" y1="4" x2="15.9993" y2="28" gradientUnits="userSpaceOnUse">
<stop stop-color="#FF5900"/>
<stop offset="1" stop-color="#FF5900"/>
</linearGradient>
<linearGradient id="paint1_linear_4020_1682" x1="0.999999" y1="4" x2="31" y2="28" gradientUnits="userSpaceOnUse">
<stop stop-color="#2C3339"/>
<stop offset="1" stop-color="#60676D"/>
</linearGradient>
</defs>
</svg>
