<svg width="32" height="32" viewBox="0 0 32 32" fill="none" xmlns="http://www.w3.org/2000/svg">
	<path
		d="M31 16C31 21.4749 29.5 25.465 26.5 27.925C24.0249 29.98 20.53 31 16 31C11.47 31 7.97506 29.98 5.5 27.925C2.5 25.465 1 21.4749 1 16C1 5.99494 5.995 1 16 1C26.005 1 31 5.99494 31 16Z"
		fill="#4A5257" />
	<path
		d="M26.5 15.82V27.925C24.0249 29.98 20.53 31 16 31C11.47 31 7.97506 29.98 5.5 27.925V11.41C5.5 8.98 7.48 7 9.91 7H17.68C18.13 7 18.5799 7.02994 19 7.105C23.245 7.735 26.5 11.395 26.5 15.82Z"
		fill="#6A7378" />
	<path opacity="0.4"
		d="M26.5 15.82V16H25C21.6849 16 19 13.3149 19 9.99998V7.10498C23.245 7.73498 26.5 11.395 26.5 15.82Z"
		fill="#9AA0A3" />
	<path
		d="M20.9851 27H11.0149C10.4544 27 10 26.5243 10 25.9375V25.0625C10 24.4757 10.4544 24 11.0149 24H20.9851C21.5456 24 22 24.4757 22 25.0625V25.9375C22 26.5243 21.5456 27 20.9851 27Z"
		fill="white" />
	<path opacity="0.76"
		d="M20.733 26.0639H18.5319C18.2382 26.0639 18 25.8257 18 25.5319C18 25.2382 18.2381 25 18.5319 25H20.733C21.0267 25 21.2649 25.2381 21.2649 25.5319C21.2649 25.8257 21.0267 26.0639 20.733 26.0639Z"
		fill="#6A7378" />
	<path
		d="M12.2219 17.273C12.5197 17.5533 13.004 17.5533 13.3019 17.273L15.2376 15.45V21.2825C15.2376 21.6787 15.5791 22 16 22C16.4209 22 16.7624 21.6787 16.7624 21.2825V15.45L18.6981 17.273C18.996 17.5533 19.4803 17.5533 19.7781 17.273C20.074 16.9927 20.074 16.5369 19.7781 16.2566L16.54 13.2093C16.3911 13.0691 16.1946 13 16 13C15.8054 13 15.6089 13.0691 15.46 13.2093L12.2219 16.2566C11.926 16.5368 11.926 16.9927 12.2219 17.273Z"
		fill="white" />
</svg>