<svg xmlns="http://www.w3.org/2000/svg" width="38" height="20" viewBox="0 0 62.563 22.351"><path id="Path_97" data-name="Path 97" d="M105.588-18.469a.791.791,0,0,1,0-1.265l7.065-7.8H55.78a.746.746,0,0,1-.844-.844.746.746,0,0,1,.844-.844h56.873l-7.065-7.8a.791.791,0,0,1,0-1.265.791.791,0,0,1,1.265,0q8.33,9.174,8.436,9.279a.859.859,0,0,1,.211.633.859.859,0,0,1-.211.633l-8.436,9.279a.859.859,0,0,1-.633.211A.859.859,0,0,1,105.588-18.469Z" transform="translate(-53.937 39.609)" fill="#ffc920" stroke="#ffc920" stroke-width="2"></path></svg>