<?xml version="1.0" encoding="utf-8"?>
<!-- Generator: Adobe Illustrator 23.0.0, SVG Export Plug-In . SVG Version: 6.00 Build 0)  -->
<svg fill="none" xmlns="http://www.w3.org/2000/svg" viewBox="0 0 70 70">
	<path
		d="M11.2 11.3C17 5.6 25 5 35 5s18 .6 23.7 6.3c5.7 5.6 6.2 13.7 6.2 23.7s-.6 18-6.2 23.6S45 64.8 35 64.8s-18-.6-23.7-6.2S5 45 5 35s.6-18.1 6.2-23.7"
		fill="#6F0AF2" />
	<path opacity=".7"
		d="M35 57.8c16.4 0 29.8-10.2 29.8-22.8S51.4 12 35 12 5 22.3 5 35s13.4 22.8 30 22.8"
		fill="url(#a)" />
	<path opacity=".7"
		d="M35 57.8c16.4 0 29.8-10.2 29.8-22.8S51.4 12 35 12 5 22.3 5 35s13.4 22.8 30 22.8"
		fill="url(#b)" />
	<path opacity=".8"
		d="M48.4 21.5c13 13 17.6 29.7 10.2 37.1s-24 2.9-37.1-10.2S3.8 18.7 11.3 11.3s24-2.9 37 10.2"
		fill="url(#c)" />
	<path opacity=".3"
		d="M48.4 21.5c13 13 17.6 29.7 10.2 37.1s-24 2.9-37.1-10.2S3.8 18.7 11.3 11.3s24-2.9 37 10.2"
		fill="url(#d)" />
	<path opacity=".4"
		d="M48.4 21.5c13 13 17.6 29.7 10.2 37.1s-24 2.9-37.1-10.2S3.8 18.7 11.3 11.3s24-2.9 37 10.2"
		fill="url(#e)" />
	<path opacity=".3"
		d="M48.4 21.5c13 13 17.6 29.7 10.2 37.1s-24 2.9-37.1-10.2S3.8 18.7 11.3 11.3s24-2.9 37 10.2"
		fill="url(#f)" />
	<path opacity=".9"
		d="M23 23C10 36 5 52.3 12 59.3s23.2 2 36.3-11 18-29.4 11-36.3C52.3 5 36 10 23 23"
		fill="url(#g)" />
	<path opacity=".9"
		d="M23 23C10 36 5 52.3 12 59.3s23.2 2 36.3-11 18-29.4 11-36.3C52.3 5 36 10 23 23"
		fill="url(#h)" />
	<path opacity=".9"
		d="M23 23C10 36 5 52.3 12 59.3s23.2 2 36.3-11 18-29.4 11-36.3C52.3 5 36 10 23 23"
		fill="url(#i)" />
	<path
		d="M20.3 28.2H31q2-.2 2.2-2.2c.2-2-1-2-2.2-2H20.3c-1.2 0-2.2 1-2.2 2.1q.3 2 2.2 2.2m26.5 5.4-4.3-8.4c-.8-1.6-3-1.7-3.8 0l-7.8 15.4q-.5 1-1.8 1.1h-8.6q-1.8.1-2.2 2a2 2 0 0 0 2.1 2.3h11.3a2 2 0 0 0 1.8-1.2l7.2-14 2.4 4.7a2 2 0 0 0 1.8 1.2q.6 0 1-.2c1-.6 1.4-1.9.9-2.9m4.6 9.3-1.6-3.2c-.5-1-1.8-1.5-2.8-1s-1.5 1.8-1 2.8l1.6 3.2a2 2 0 0 0 2 1.2l.9-.2c1-.5 1.4-1.8 1-2.8"
		fill="#fff" />
	<path
		d="M20.3 37h6.2c1.2 0 2.2-1 2.2-2q-.2-2-2.2-2.2h-6.2c-1.2 0-2.2 1-2.2 2.1q.3 2 2.2 2.2m0-9.1H31q2-.2 2.2-2-.2-2-2.2-2.2H20.3c-1.2 0-2.2 1-2.2 2.1q.3 2 2.2 2.2"
		fill="#fff" />
	<path
		d="m46.8 33.6-4.3-8.3c-.8-1.7-3-1.8-3.8 0l-7.8 15.3q-.5 1-1.8 1.1h-8.6q-1.8.2-2.2 2a2 2 0 0 0 2.1 2.3h11.3a2 2 0 0 0 1.8-1.1l7.2-14.1 2.4 4.8a2 2 0 0 0 1.8 1.1q.6 0 1-.2c1-.6 1.4-1.9.9-2.9m4.6 9.3-1.6-3.2c-.5-1-1.8-1.5-2.8-1s-1.5 1.8-1 2.8l1.6 3.2a2 2 0 0 0 2 1.2l.9-.2c1-.5 1.4-1.8 1-2.8"
		fill="#fff" />
	<path
		d="M20.3 37h6.2c1.2 0 2.2-1 2.2-2.1s-1-2.2-2.2-2.2h-6.2q-2 .2-2.2 2.2c.1 1.1 1 2.1 2.2 2.1"
		fill="#fff" />
	<defs>
		<linearGradient id="a" x1="48.8" y1="19.9" x2="18.1" y2="53.2"
			gradientUnits="userSpaceOnUse">
			<stop offset="0" stop-color="#6B0AD9" stop-opacity=".6" />
			<stop offset=".3" stop-color="#690DDC" stop-opacity=".7" />
			<stop offset=".5" stop-color="#6317E5" stop-opacity=".7" />
			<stop offset=".7" stop-color="#5827F3" stop-opacity=".8" />
			<stop offset=".8" stop-color="#5132FE" stop-opacity=".8" />
			<stop offset=".9" stop-color="#742DFE" stop-opacity=".9" />
			<stop offset="1" stop-color="#9A27FF" />
		</linearGradient>
		<linearGradient id="b" x1="60.7" y1="24" x2="12.6" y2="44.4" gradientUnits="userSpaceOnUse">
			<stop stop-color="#9A27FF" stop-opacity=".8" />
			<stop offset=".1" stop-color="#742DFE" stop-opacity=".8" />
			<stop offset=".1" stop-color="#5132FE" stop-opacity=".8" />
			<stop offset=".3" stop-color="#5827F3" stop-opacity=".8" />
			<stop offset=".5" stop-color="#6317E5" stop-opacity=".7" />
			<stop offset=".7" stop-color="#690DDC" stop-opacity=".7" />
			<stop offset="1" stop-color="#6B0AD9" stop-opacity=".6" />
		</linearGradient>
		<linearGradient id="c" x1="6.3" y1="36.9" x2="56.7" y2="48.6" gradientUnits="userSpaceOnUse">
			<stop offset=".1" stop-color="#9A27FF" />
			<stop offset=".8" stop-color="#6F0AF2" stop-opacity="0" />
			<stop offset="1" stop-color="#7A35FF" stop-opacity=".3" />
		</linearGradient>
		<linearGradient id="d" x1="20.7" y1="19.6" x2="57.1" y2="58.8"
			gradientUnits="userSpaceOnUse">
			<stop stop-color="#7A35FF" stop-opacity="0" />
			<stop offset=".2" stop-color="#6F0AF2" stop-opacity="0" />
			<stop offset="1" stop-color="#9A27FF" />
		</linearGradient>
		<linearGradient id="e" x1="20.7" y1="19.6" x2="57.1" y2="58.8"
			gradientUnits="userSpaceOnUse">
			<stop stop-color="#7A35FF" stop-opacity="0" />
			<stop offset=".2" stop-color="#6F0AF2" stop-opacity="0" />
			<stop offset="1" stop-color="#9A27FF" />
		</linearGradient>
		<linearGradient id="f" x1="20.7" y1="19.6" x2="57.1" y2="58.8"
			gradientUnits="userSpaceOnUse">
			<stop stop-color="#7A35FF" stop-opacity="0" />
			<stop offset=".2" stop-color="#6F0AF2" stop-opacity="0" />
			<stop offset="1" stop-color="#9A27FF" />
		</linearGradient>
		<linearGradient id="g" x1="39.1" y1="48.9" x2="29.9" y2="13.7"
			gradientUnits="userSpaceOnUse">
			<stop stop-color="#6F0AF2" stop-opacity="0" />
			<stop offset=".4" stop-color="#710CF3" stop-opacity=".4" />
			<stop offset=".6" stop-color="#7A11F5" stop-opacity=".6" />
			<stop offset=".8" stop-color="#881BF9" stop-opacity=".8" />
			<stop offset="1" stop-color="#9A27FF" />
		</linearGradient>
		<linearGradient id="h" x1="45.7" y1="50.8" x2="29.6" y2="18.7"
			gradientUnits="userSpaceOnUse">
			<stop offset="0" stop-color="#9A27FF" stop-opacity=".3" />
			<stop offset=".5" stop-color="#9C27FF" stop-opacity=".1" />
			<stop offset=".7" stop-color="#A326FF" stop-opacity=".1" />
			<stop offset=".8" stop-color="#AE25FF" stop-opacity=".1" />
			<stop offset=".9" stop-color="#BF23FF" stop-opacity="0" />
			<stop offset="1" stop-color="#C822FF" stop-opacity="0" />
		</linearGradient>
		<linearGradient id="i" x1="33.8" y1="28.6" x2="41.1" y2="57.2"
			gradientUnits="userSpaceOnUse">
			<stop offset=".2" stop-color="#6F0AF2" stop-opacity=".1" />
			<stop offset=".4" stop-color="#730DF3" stop-opacity=".4" />
			<stop offset=".7" stop-color="#7F15F7" stop-opacity=".6" />
			<stop offset=".9" stop-color="#9322FD" stop-opacity=".9" />
			<stop offset="1" stop-color="#9A27FF" stop-opacity=".9" />
		</linearGradient>
	</defs>
</svg>
