<svg width="17" height="17" viewBox="0 0 17 17" fill="none" xmlns="http://www.w3.org/2000/svg">
<path fill-rule="evenodd" clip-rule="evenodd" d="M2.5 0.75C1.25736 0.75 0.25 1.75736 0.25 3V14.25C0.25 15.4927 1.25736 16.5 2.5 16.5H14.5C15.7427 16.5 16.75 15.4927 16.75 14.25V5.25C16.75 4.00736 15.7427 3 14.5 3H8.5L6.90901 1.40901C6.48705 0.987053 5.91476 0.75 5.31802 0.75H2.5ZM8.5 5.25C8.91422 5.25 9.25 5.58578 9.25 6V10.9394L10.2197 9.96968C10.5126 9.6768 10.9874 9.6768 11.2803 9.96968C11.5732 10.2626 11.5732 10.7374 11.2803 11.0303L9.03032 13.2803C8.73745 13.5732 8.26255 13.5732 7.96968 13.2803L5.71967 11.0303C5.42678 10.7374 5.42678 10.2626 5.71967 9.96968C6.01256 9.6768 6.48744 9.6768 6.78033 9.96968L7.75 10.9394V6C7.75 5.58578 8.08577 5.25 8.5 5.25Z" fill="url(#paint0_linear_4039_10299)"/>
<defs>
<linearGradient id="paint0_linear_4039_10299" x1="8.5" y1="0.75" x2="8.5" y2="16.5" gradientUnits="userSpaceOnUse">
<stop stop-color="#FFCD91"/>
<stop offset="1" stop-color="#FAAD50"/>
</linearGradient>
</defs>
</svg>
