<svg width="13" height="14" viewBox="0 0 13 14" fill="none" xmlns="http://www.w3.org/2000/svg">
<path d="M0.199219 1.60117C0.199219 1.36248 0.29404 1.13356 0.462823 0.964776C0.631605 0.795993 0.860524 0.701172 1.09922 0.701172H11.8992C12.1379 0.701172 12.3668 0.795993 12.5356 0.964776C12.7044 1.13356 12.7992 1.36248 12.7992 1.60117V3.40117C12.7992 3.63987 12.7044 3.86878 12.5356 4.03757C12.3668 4.20635 12.1379 4.30117 11.8992 4.30117H1.09922C0.860524 4.30117 0.631605 4.20635 0.462823 4.03757C0.29404 3.86878 0.199219 3.63987 0.199219 3.40117V1.60117ZM0.199219 7.00117C0.199219 6.76248 0.29404 6.53356 0.462823 6.36478C0.631605 6.19599 0.860524 6.10117 1.09922 6.10117H6.49922C6.73791 6.10117 6.96683 6.19599 7.13561 6.36478C7.3044 6.53356 7.39922 6.76248 7.39922 7.00117V12.4012C7.39922 12.6399 7.3044 12.8688 7.13561 13.0376C6.96683 13.2064 6.73791 13.3012 6.49922 13.3012H1.09922C0.860524 13.3012 0.631605 13.2064 0.462823 13.0376C0.29404 12.8688 0.199219 12.6399 0.199219 12.4012V7.00117ZM10.0992 6.10117C9.86052 6.10117 9.63161 6.19599 9.46282 6.36478C9.29404 6.53356 9.19922 6.76248 9.19922 7.00117V12.4012C9.19922 12.6399 9.29404 12.8688 9.46282 13.0376C9.63161 13.2064 9.86052 13.3012 10.0992 13.3012H11.8992C12.1379 13.3012 12.3668 13.2064 12.5356 13.0376C12.7044 12.8688 12.7992 12.6399 12.7992 12.4012V7.00117C12.7992 6.76248 12.7044 6.53356 12.5356 6.36478C12.3668 6.19599 12.1379 6.10117 11.8992 6.10117H10.0992Z" fill="url(#paint0_linear_4039_10291)"/>
<defs>
<linearGradient id="paint0_linear_4039_10291" x1="6.49922" y1="0.701172" x2="6.49922" y2="13.3012" gradientUnits="userSpaceOnUse">
<stop stop-color="#9373FF"/>
<stop offset="1" stop-color="#7650F6"/>
</linearGradient>
</defs>
</svg>
