<svg width="17" height="16" viewBox="0 0 17 16" fill="none" xmlns="http://www.w3.org/2000/svg">
	<g clip-path="url(#clip0_4039_9160)">
		<path
			d="M2.5 8C2.5 8.78793 2.65519 9.56815 2.95672 10.2961C3.25825 11.0241 3.70021 11.6855 4.25736 12.2426C4.81451 12.7998 5.47595 13.2417 6.2039 13.5433C6.93185 13.8448 7.71207 14 8.5 14C9.28793 14 10.0681 13.8448 10.7961 13.5433C11.5241 13.2417 12.1855 12.7998 12.7426 12.2426C13.2998 11.6855 13.7417 11.0241 14.0433 10.2961C14.3448 9.56815 14.5 8.78793 14.5 8C14.5 6.4087 13.8679 4.88258 12.7426 3.75736C11.6174 2.63214 10.0913 2 8.5 2C6.9087 2 5.38258 2.63214 4.25736 3.75736C3.13214 4.88258 2.5 6.4087 2.5 8Z"
			stroke="#FEBD25" stroke-linecap="round" stroke-linejoin="round" />
		<path d="M8.5 6H8.50667" stroke="#FEBD25" stroke-width="1.5" stroke-linecap="round"
			stroke-linejoin="round" />
		<path d="M7.83398 8H8.50065V10.6667H9.16732" stroke="#FEBD25" stroke-linecap="round"
			stroke-linejoin="round" />
	</g>
	<defs>
		<clipPath id="clip0_4039_9160">
			<rect width="16" height="16" fill="white" transform="translate(0.5)" />
		</clipPath>
	</defs>
</svg>