<svg width="38" height="38" viewBox="0 0 38 38" fill="none" xmlns="http://www.w3.org/2000/svg">
<g clip-path="url(#clip0_4119_4237)">
<path d="M38 19.0001C38 22.7579 36.8857 26.4314 34.7979 29.5559C32.7102 32.6805 29.7428 35.1157 26.271 36.5538C22.7992 37.9919 18.9789 38.3681 15.2933 37.635C11.6077 36.9019 8.22218 35.0923 5.56498 32.4351C2.90778 29.7779 1.09821 26.3924 0.365088 22.7068C-0.368031 19.0212 0.00823236 15.2009 1.4463 11.7291C2.88436 8.25731 5.31964 5.28991 8.44417 3.20216C11.5687 1.11442 15.2422 8.75446e-05 19 8.75446e-05C21.4973 -0.00750442 23.9714 0.478763 26.28 1.43091C28.5886 2.38306 30.6861 3.7823 32.452 5.54813C34.2178 7.31396 35.617 9.41152 36.5692 11.7201C37.5213 14.0287 38.0076 16.5028 38 19.0001Z" fill="#6C3BFF"/>
<path d="M37.6297 22.7273C36.8941 26.4056 35.0861 29.7838 32.4337 32.4362C29.7812 35.0887 26.403 36.8966 22.7247 37.6323L11.9497 26.8573L12.9022 25.0948L8.11719 20.3098L13.3672 17.7673C14.3222 12.6698 16.8172 10.9473 16.8172 10.9473L21.8797 15.9998L26.0447 11.1323L37.6297 22.7273Z" fill="url(#paint0_linear_4119_4237)"/>
<path d="M30.2478 18.9998C30.2478 20.1098 29.5603 20.9998 28.7153 20.9998C28.0976 20.9453 27.4999 20.754 26.9653 20.4398C26.8036 20.3504 26.6209 20.306 26.4362 20.3113C26.2515 20.3166 26.0716 20.3713 25.9153 20.4698C25.7608 20.5687 25.6359 20.7076 25.554 20.8718C25.4721 21.036 25.4363 21.2194 25.4503 21.4023C25.5999 23.0983 25.836 24.7855 26.1578 26.4573C26.1722 26.5254 26.1705 26.596 26.1527 26.6633C26.1349 26.7306 26.1015 26.7927 26.0553 26.8448C26.0024 26.9069 25.9364 26.9566 25.8621 26.9903C25.7878 27.024 25.7069 27.0409 25.6253 27.0398H21.1803C21.7103 26.2323 22.0653 25.2223 22.0653 24.5248C22.0653 23.1348 20.6903 22.0073 18.9978 22.0073H18.9803C17.2953 22.0073 15.9303 23.1398 15.9303 24.5248C15.9303 25.2223 16.2853 26.2323 16.8153 27.0398H12.3803C12.2987 27.0409 12.2179 27.024 12.1435 26.9903C12.0692 26.9566 12.0032 26.9069 11.9503 26.8448C11.9041 26.7927 11.8708 26.7306 11.853 26.6633C11.8352 26.596 11.8334 26.5254 11.8478 26.4573C12.1696 24.7855 12.4057 23.0983 12.5553 21.4023C12.5693 21.2194 12.5335 21.036 12.4516 20.8718C12.3697 20.7076 12.2449 20.5687 12.0903 20.4698C11.9337 20.3721 11.7539 20.3178 11.5694 20.3125C11.3848 20.3072 11.2022 20.3512 11.0403 20.4398C10.5058 20.754 9.90798 20.9453 9.29031 20.9998C8.44531 20.9998 7.75781 20.0973 7.75781 18.9998C7.75781 17.9023 8.44531 16.9998 9.29031 16.9998C9.90798 17.0543 10.5058 17.2456 11.0403 17.5598C11.2024 17.648 11.3849 17.6916 11.5694 17.6863C11.7538 17.6811 11.9335 17.6271 12.0903 17.5298C12.2449 17.4309 12.3697 17.292 12.4516 17.1278C12.5335 16.9636 12.5693 16.7803 12.5553 16.5973C12.4062 14.8972 12.17 13.2058 11.8478 11.5298C11.8334 11.4617 11.8352 11.3912 11.853 11.3239C11.8708 11.2566 11.9041 11.1944 11.9503 11.1423C12.0032 11.0802 12.0692 11.0305 12.1435 10.9968C12.2179 10.9631 12.2987 10.9462 12.3803 10.9473H16.8153C16.2853 11.7548 15.9303 12.7648 15.9303 13.4623C15.9303 14.8448 17.2953 15.9623 18.9803 15.9798H18.9978C20.6903 15.9798 22.0653 14.8473 22.0653 13.4623C22.0653 12.7648 21.7103 11.7548 21.1803 10.9473H25.6153C25.6969 10.9462 25.7778 10.9631 25.8521 10.9968C25.9264 11.0305 25.9924 11.0802 26.0453 11.1423C26.0915 11.1944 26.1249 11.2566 26.1427 11.3239C26.1605 11.3912 26.1622 11.4617 26.1478 11.5298C25.826 13.2017 25.5899 14.8889 25.4403 16.5848C25.4263 16.7678 25.4621 16.9511 25.544 17.1153C25.6259 17.2795 25.7508 17.4184 25.9053 17.5173C26.0616 17.6158 26.2415 17.6705 26.4262 17.6758C26.6109 17.6811 26.7936 17.6367 26.9553 17.5473C27.4899 17.2331 28.0876 17.0418 28.7053 16.9873C29.5603 16.9998 30.2478 17.8898 30.2478 18.9998Z" fill="white"/>
<path opacity="0.25" d="M15.9303 24.5373C15.9303 25.2348 16.2853 26.2448 16.8153 27.0523H12.3803C12.2987 27.0534 12.2179 27.0365 12.1435 27.0028C12.0692 26.9691 12.0032 26.9194 11.9503 26.8573C11.9041 26.8052 11.8708 26.7431 11.853 26.6758C11.8352 26.6085 11.8334 26.5379 11.8478 26.4698C12.1696 24.798 12.4057 23.1108 12.5553 21.4148C12.5693 21.2319 12.5335 21.0485 12.4516 20.8843C12.3697 20.7201 12.2449 20.5812 12.0903 20.4823C11.9337 20.3846 11.7539 20.3303 11.5694 20.325C11.3848 20.3197 11.2022 20.3637 11.0403 20.4523C10.5058 20.7665 9.90798 20.9578 9.29031 21.0123C8.44531 21.0123 7.75781 20.1098 7.75781 19.0123C7.75781 17.9148 8.44531 17.0123 9.29031 17.0123C9.90798 17.0668 10.5058 17.2581 11.0403 17.5723C11.2024 17.6605 11.3849 17.7041 11.5694 17.6988C11.7538 17.6936 11.9335 17.6396 12.0903 17.5423C12.2449 17.4434 12.3697 17.3045 12.4516 17.1403C12.5335 16.9761 12.5693 16.7928 12.5553 16.6098C12.4066 14.9055 12.1705 13.2099 11.8478 11.5298C11.8334 11.4617 11.8352 11.3912 11.853 11.3239C11.8708 11.2566 11.9041 11.1944 11.9503 11.1423C12.0032 11.0802 12.0692 11.0305 12.1435 10.9968C12.2179 10.9631 12.2987 10.9462 12.3803 10.9473H16.8153C16.2853 11.7548 15.9303 12.7648 15.9303 13.4623C15.9303 14.8448 17.2953 15.9623 18.9803 15.9798V22.0198C17.2953 22.0273 15.9303 23.1523 15.9303 24.5373Z" fill="#4D4D4D"/>
</g>
<defs>
<linearGradient id="paint0_linear_4119_4237" x1="8.11719" y1="24.2898" x2="37.6297" y2="24.2898" gradientUnits="userSpaceOnUse">
<stop stop-color="#231F20"/>
<stop offset="1" stop-color="#231F20" stop-opacity="0"/>
</linearGradient>
<clipPath id="clip0_4119_4237">
<rect width="38" height="38" fill="white"/>
</clipPath>
</defs>
</svg>
