<svg width="16" height="17" viewBox="0 0 16 17" fill="none" xmlns="http://www.w3.org/2000/svg">
<path d="M0 16.5C0 13.1863 2.68629 10.5 6 10.5C9.31373 10.5 12 13.1863 12 16.5H0ZM6 9.75C3.51375 9.75 1.5 7.73625 1.5 5.25C1.5 2.76375 3.51375 0.75 6 0.75C8.48625 0.75 10.5 2.76375 10.5 5.25C10.5 7.73625 8.48625 9.75 6 9.75ZM11.5221 11.4249C13.8362 12.0163 15.5759 14.0426 15.7377 16.5H13.5C13.5 14.5427 12.7502 12.7604 11.5221 11.4249ZM10.0051 9.71767C11.2296 8.61915 12 7.02455 12 5.25C12 4.187 11.7235 3.18856 11.2387 2.32265C12.9565 2.66548 14.25 4.18099 14.25 6C14.25 8.07188 12.5719 9.75 10.5 9.75C10.3322 9.75 10.167 9.73897 10.0051 9.71767Z" fill="url(#paint0_linear_4039_10295)"/>
<defs>
<linearGradient id="paint0_linear_4039_10295" x1="7.86885" y1="0.75" x2="7.86885" y2="16.5" gradientUnits="userSpaceOnUse">
<stop stop-color="#FFBAC4"/>
<stop offset="1" stop-color="#FF7B8E"/>
</linearGradient>
</defs>
</svg>
